<?xml version="1.0" standalone="no"?>
<!DOCTYPE svg PUBLIC "-//W3C//DTD SVG 20010904//EN"
 "http://www.w3.org/TR/2001/REC-SVG-20010904/DTD/svg10.dtd">
<svg version="1.0" xmlns="http://www.w3.org/2000/svg"
 width="136.500000pt" height="28.947983pt" viewBox="0 0 136.500000 28.947983"
 preserveAspectRatio="xMidYMid meet">
<metadata>
Created by potrace 1.16, written by Peter Selinger 2001-2019
</metadata>
<g transform="translate(-24.000000,48.122262) scale(0.100000,-0.100000)"
fill="#d60056" stroke="none">
<path d="M240 461 c0 -30 18 -71 45 -103 21 -25 25 -40 25 -94 l0 -64 40 0 40
0 0 54 c0 78 -10 118 -27 112 -8 -3 -11 -2 -8 3 3 5 -6 26 -20 47 -14 20 -25
43 -25 50 0 9 -12 14 -35 14 -28 0 -35 -4 -35 -19z"/>
<path d="M386 449 c-34 -29 -40 -67 -9 -55 8 3 12 2 8 -3 -3 -5 -2 -17 1 -26
6 -14 12 -11 40 16 25 24 34 42 34 66 0 43 -27 44 -74 2z"/>
<path d="M518 451 c-29 -26 -33 -35 -36 -97 -4 -91 16 -133 74 -153 77 -27
137 11 148 95 10 67 -7 134 -39 162 -39 33 -105 31 -147 -7z m96 -44 c14 -10
16 -25 14 -77 -3 -65 -3 -65 -33 -65 -30 0 -30 0 -33 63 -4 81 13 107 52 79z"/>
<path d="M737 474 c-9 -9 -7 -180 2 -214 4 -14 22 -35 41 -48 48 -32 104 -25
143 18 26 29 27 34 27 140 l0 110 -35 0 -35 0 0 -99 c0 -104 -9 -126 -47 -119
-16 3 -19 17 -23 108 l-5 105 -30 3 c-17 2 -34 0 -38 -4z"/>
<path d="M1018 451 c-32 -29 -33 -31 -33 -116 0 -83 1 -88 28 -111 23 -20 39
-24 88 -24 59 0 59 0 59 29 0 28 -2 30 -47 33 l-48 3 0 70 0 70 48 3 c46 3 47
4 47 38 l0 34 -55 0 c-46 0 -60 -4 -87 -29z"/>
<path d="M1261 458 c-5 -13 -23 -70 -41 -127 -17 -57 -34 -110 -37 -118 -4 -9
6 -13 36 -13 30 0 41 4 41 15 0 21 68 21 76 0 8 -19 74 -21 74 -2 0 6 -17 68
-38 137 -38 124 -39 125 -70 128 -26 3 -34 -1 -41 -20z m49 -144 c0 -8 -6 -14
-14 -14 -9 0 -12 7 -9 20 6 22 23 18 23 -6z"/>
<path d="M1390 445 c0 -33 2 -35 35 -35 l35 0 0 -105 0 -105 35 0 35 0 0 104
0 105 38 3 c34 3 37 6 37 33 l0 30 -107 3 -108 3 0 -36z"/>
</g>
</svg>
